<svg xmlns="http://www.w3.org/2000/svg" viewBox="0 0 32 32">
  <defs>
    <linearGradient id="top" x1="16" y1="3" x2="16" y2="14" gradientUnits="userSpaceOnUse">
      <stop offset="0%" stop-color="#c4b5fd"/>
      <stop offset="100%" stop-color="#8b8cff"/>
    </linearGradient>
    <linearGradient id="left" x1="4" y1="11" x2="16" y2="29" gradientUnits="userSpaceOnUse">
      <stop offset="0%" stop-color="#6366f1"/>
      <stop offset="100%" stop-color="#4338ca"/>
    </linearGradient>
    <linearGradient id="right" x1="28" y1="11" x2="16" y2="29" gradientUnits="userSpaceOnUse">
      <stop offset="0%" stop-color="#7c3aed"/>
      <stop offset="100%" stop-color="#5b21b6"/>
    </linearGradient>
    <linearGradient id="glow" x1="16" y1="0" x2="16" y2="32" gradientUnits="userSpaceOnUse">
      <stop offset="0%" stop-color="#fff" stop-opacity=".15"/>
      <stop offset="100%" stop-color="#fff" stop-opacity="0"/>
    </linearGradient>
  </defs>
  <path d="M16 3 4 10v12l12 7 12-7V10L16 3Z" fill="#0b0b12" opacity=".22"/>
  <path d="M16 3 4 10l12 7 12-7L16 3Z" fill="url(#top)"/>
  <path d="M4 10v12l12 7V17L4 10Z" fill="url(#left)"/>
  <path d="M28 10v12l-12 7V17l12-7Z" fill="url(#right)"/>
  <path d="M16 3 4 10l12 7 12-7L16 3Z" fill="url(#glow)"/>
  <path d="M16 3 4 10l12 7 12-7L16 3Z" fill="none" stroke="#fff" stroke-width=".6" stroke-opacity=".35" stroke-linejoin="round"/>
  <path d="M4 10v12l12 7 12-7V10" fill="none" stroke="#fff" stroke-width=".6" stroke-opacity=".18" stroke-linejoin="round"/>
</svg>
